<?xml version="1.0" encoding="UTF-8" standalone="no"?>
<svg
   xmlns:dc="http://purl.org/dc/elements/1.1/"
   xmlns:cc="http://creativecommons.org/ns#"
   xmlns:rdf="http://www.w3.org/1999/02/22-rdf-syntax-ns#"
   xmlns:svg="http://www.w3.org/2000/svg"
   xmlns="http://www.w3.org/2000/svg"
   id="svg14"
   preserveAspectRatio="xMidYMid meet"
   viewBox="0 0 6300 5660"
   height="566px"
   width="630px"
   version="1.0">
  <metadata
     id="metadata20">
    <rdf:RDF>
      <cc:Work
         rdf:about="">
        <dc:format>image/svg+xml</dc:format>
        <dc:type
           rdf:resource="http://purl.org/dc/dcmitype/StillImage" />
      </cc:Work>
    </rdf:RDF>
  </metadata>
  <defs
     id="defs18" />
  <g
     stroke="none"
     fill="#13a5ff"
     id="layer101">
    <path
       id="path2"
       d="M0 2830 l0 -2830 3150 0 3150 0 0 2830 0 2830 -3150 0 -3150 0 0 -2830z" />
  </g>
  <g
     stroke="none"
     fill="#ffffff"
     id="layer102">
    <path
       id="path5"
       d="M0 2830 l0 -2830 3150 0 3150 0 0 2830 0 2830 -3150 0 -3150 0 0 -2830z m225 2225 l25 -24 0 -351 0 -351 -25 -24 c-29 -30 -74 -32 -106 -6 l-24 19 -3 339 c-2 186 0 348 3 361 15 61 86 82 130 37z m346 6 c24 -19 24 -22 29 -265 l5 -245 159 240 c88 132 172 251 188 265 37 30 99 33 127 5 29 -29 32 -77 29 -424 l-3 -319 -24 -19 c-31 -25 -73 -24 -97 2 -17 19 -19 43 -24 276 l-5 255 -175 -265 c-104 -157 -184 -270 -198 -276 -37 -17 -68 -13 -101 15 l-31 26 0 351 c0 346 0 351 22 374 26 28 67 30 99 4z m844 -6 c24 -23 25 -28 25 -170 l0 -145 150 0 c137 0 152 -2 170 -20 26 -26 25 -50 0 -78 -20 -21 -29 -22 -170 -22 l-150 0 0 -100 0 -100 173 0 c193 0 217 -7 217 -60 0 -55 -20 -60 -262 -60 -234 0 -259 5 -278 49 -7 19 -10 133 -8 360 l3 333 24 19 c32 26 77 24 106 -6z m1046 -4 c146 -56 228 -209 216 -406 -3 -50 -13 -110 -23 -135 -62 -158 -202 -240 -389 -227 -157 11 -247 65 -309 189 -35 69 -39 87 -44 171 -11 226 79 369 268 424 66 19 211 11 281 -16z m632 9 c28 -22 34 -38 102 -285 73 -264 76 -275 80 -275 3 0 11 24 19 53 20 69 73 263 85 307 54 197 69 220 140 220 72 0 80 -17 170 -377 45 -178 81 -334 81 -348 0 -40 -17 -63 -50 -70 -69 -15 -87 10 -125 176 -14 63 -37 160 -50 216 -14 57 -25 112 -25 123 0 55 -21 0 -78 -206 -34 -124 -69 -241 -78 -259 -24 -52 -86 -70 -143 -40 -37 19 -36 14 -126 345 -49 181 -51 188 -58 170 -3 -8 -27 -107 -53 -220 -25 -113 -50 -220 -54 -238 -11 -47 -37 -72 -75 -72 -41 0 -75 32 -75 71 0 31 142 611 162 662 25 63 100 87 151 47z m1308 -9 c146 -56 228 -209 216 -406 -3 -50 -13 -110 -23 -135 -62 -158 -202 -240 -389 -227 -157 11 -247 65 -309 189 -35 69 -39 87 -44 171 -11 226 79 369 268 424 66 19 211 11 281 -16z m492 15 c28 -22 38 -73 36 -201 l-1 -120 46 -3 c90 -6 125 24 235 206 35 56 73 109 84 117 49 34 127 5 127 -48 0 -56 -157 -277 -197 -277 -30 0 -9 -18 34 -31 68 -18 120 -69 139 -135 24 -83 9 -141 -55 -207 -55 -57 -101 -67 -322 -67 -213 0 -234 5 -249 59 -13 49 -13 631 0 667 6 15 18 33 28 40 22 17 72 17 95 0z m797 4 c28 -15 40 -64 40 -160 l0 -88 58 -56 c31 -31 62 -56 67 -56 6 0 60 77 120 171 61 94 119 177 130 185 31 22 82 17 110 -11 47 -46 46 -48 -198 -388 l-49 -69 116 -111 c83 -80 116 -119 116 -135 0 -34 -43 -72 -82 -72 -29 0 -47 14 -146 118 -62 64 -140 147 -174 185 -33 37 -64 67 -67 67 -3 0 -6 -72 -6 -159 0 -155 -1 -160 -24 -185 -31 -33 -76 -34 -108 -4 l-23 21 0 358 0 358 26 20 c29 23 64 27 94 11z m-4519 -1070 c94 -25 168 -115 195 -239 16 -70 17 -183 11 -1446 -6 -1481 -4 -1424 -59 -1533 -25 -51 -85 -107 -137 -130 -48 -21 -174 -21 -222 0 -55 24 -116 84 -143 141 -50 108 -50 83 -42 1526 4 740 9 1368 12 1395 12 101 67 204 134 251 70 49 154 60 251 35z m1542 6 c97 -23 182 -97 232 -201 39 -83 88 -259 311 -1125 30 -118 66 -255 79 -305 14 -49 48 -180 76 -290 75 -292 149 -568 153 -572 2 -2 17 52 35 119 17 68 76 299 131 513 55 215 133 521 174 680 41 160 95 371 121 470 70 271 122 449 151 510 33 68 93 138 147 169 102 59 273 60 382 3 46 -23 118 -105 147 -167 28 -60 74 -216 112 -380 13 -58 42 -184 65 -280 74 -313 121 -512 161 -685 22 -93 58 -246 80 -340 22 -93 58 -246 80 -340 22 -93 58 -246 80 -340 103 -433 113 -504 85 -603 -22 -78 -82 -149 -157 -186 -42 -21 -67 -26 -125 -26 -118 0 -193 41 -249 136 -38 64 -50 111 -175 704 -11 52 -24 113 -29 135 -5 22 -46 209 -89 415 -154 725 -201 944 -204 946 -4 4 -27 -83 -271 -1031 -247 -954 -267 -1027 -301 -1095 -36 -72 -109 -146 -173 -176 -46 -22 -76 -28 -153 -32 -152 -7 -252 32 -332 131 -79 96 -82 107 -272 852 -319 1252 -352 1377 -354 1350 -1 -5 -19 -93 -41 -195 -21 -102 -111 -525 -200 -940 -174 -822 -200 -931 -237 -1023 -52 -129 -106 -168 -244 -175 -71 -4 -94 -1 -132 16 -100 44 -171 142 -184 253 -9 78 2 140 128 672 21 92 57 244 79 337 22 94 58 247 80 340 22 94 58 247 80 340 22 94 58 245 79 338 22 92 60 255 86 362 76 326 105 432 140 506 35 77 87 141 142 175 75 47 197 61 306 35z" />
    <path
       id="path7"
       d="M2206 4940 c-71 -36 -97 -71 -122 -165 -18 -68 -17 -137 3 -209 56 -199 306 -226 397 -43 27 53 29 68 29 161 0 94 -2 107 -28 155 -16 29 -42 63 -57 76 -56 47 -155 58 -222 25z" />
    <path
       id="path9"
       d="M4146 4940 c-71 -36 -97 -71 -122 -165 -18 -68 -17 -137 3 -209 56 -199 306 -226 397 -43 27 53 29 68 29 161 0 94 -2 107 -28 155 -16 29 -42 63 -57 76 -56 47 -155 58 -222 25z" />
    <path
       id="path11"
       d="M4928 4534 c-2 -58 -1 -108 1 -110 2 -2 53 -4 112 -4 154 0 198 25 199 111 0 82 -52 109 -212 109 l-97 0 -3 -106z" />
  </g>
</svg>
