<svg id="line_color" height="512" viewBox="0 0 74 74" width="512" xmlns="http://www.w3.org/2000/svg" data-name="line color"><path d="m33.408 13.37h7.183v13.094h-7.183z" fill="#89c5cd"/><path d="m37.316 11.275h-.016c-1.9 0-3.353-1.187-3.353-2.859s3.333-6.041 3.333-6.041a15.792 15.792 0 0 0 2.184 4.725 2.66 2.66 0 0 1 -2.148 4.175z" fill="#fe7058"/><path d="m37.315 11.775h-.015c-2.2 0-3.854-1.444-3.854-3.359 0-1.789 3.086-5.883 3.438-6.344a.5.5 0 0 1 .882.178 15.378 15.378 0 0 0 2.1 4.556 2.991 2.991 0 0 1 .313 3.061 3.312 3.312 0 0 1 -2.825 1.906zm-.223-8.3c-1.2 1.68-2.648 4.011-2.648 4.946 0 1.366 1.2 2.358 2.852 2.359a2.324 2.324 0 0 0 1.974-1.328 2 2 0 0 0 -.207-2.05 15.051 15.051 0 0 1 -1.97-3.932z" fill="#323c6b"/><path d="m36.952 13.87a.5.5 0 0 1 -.5-.5v-4.27a.5.5 0 1 1 1 0v4.27a.5.5 0 0 1 -.5.5z" fill="#323c6b"/><path d="m38.4 13.37h2.19v13.094h-2.19z" fill="#6eaaad"/><path d="m40.591 26.964h-7.184a.5.5 0 0 1 -.5-.5v-13.094a.5.5 0 0 1 .5-.5h7.184a.5.5 0 0 1 .5.5v13.094a.5.5 0 0 1 -.5.5zm-6.684-1h6.184v-12.094h-6.184z" fill="#323c6b"/><path d="m17.892 16.175h6.466v10.031h-6.466z" fill="#89c5cd"/><path d="m7.692 61.125v-20.925a2.248 2.248 0 0 0 3.84 1.58 2.189 2.189 0 0 0 .661-1.58v-1.273a2.744 2.744 0 0 1 5.488 0v5.986a3.132 3.132 0 0 0 6.264 0v-3.313a2.466 2.466 0 1 1 4.932 0v2.916a2.248 2.248 0 0 0 2.251 2.251 2.19 2.19 0 0 0 1.58-.661 2.212 2.212 0 0 0 .661-1.59v-2.648a2.755 2.755 0 0 1 2.749-2.749 2.747 2.747 0 0 1 2.739 2.749v5.718a3.137 3.137 0 0 0 6.273 0v-4.339a2.466 2.466 0 0 1 4.932 0l-.01 1.973a3.132 3.132 0 1 0 6.264 0v-5.2a2.755 2.755 0 0 1 2.749-2.749 2.747 2.747 0 0 1 2.735 2.748v.5a2.252 2.252 0 0 0 2.251 2.241 2.256 2.256 0 0 0 2.251-2.241v20.606z" fill="#eeefee"/><path d="m65.36 42.1a3.953 3.953 0 0 1 -2.276.661v18.364h3.223v-20.608a1.951 1.951 0 0 1 -.947 1.583z" fill="#d5d6db"/><path d="m66.307 41.017a.5.5 0 0 1 -.5-.5v-8.294a.5.5 0 0 1 1 0v8.294a.5.5 0 0 1 -.5.5z" fill="#323c6b"/><path d="m70.793 61.125-.054 6.905h-67.581l.054-6.905z" fill="#bbbbcd"/><path d="m70.79 61.12-.05 6.91h-67.58l.02-3.45h64.74l.03-3.46z" fill="#9297ab"/><path d="m21.41 14.385h-.016a2.744 2.744 0 0 1 -3.018-2.573c0-1.505 3-5.438 3-5.438a14.215 14.215 0 0 0 1.966 4.256 2.394 2.394 0 0 1 -1.932 3.755z" fill="#fe7058"/><path d="m21.41 14.885h-.017a3.245 3.245 0 0 1 -3.519-3.073c0-1.627 2.788-5.325 3.105-5.741a.5.5 0 0 1 .882.178 13.794 13.794 0 0 0 1.884 4.084 2.742 2.742 0 0 1 .286 2.806 3.031 3.031 0 0 1 -2.584 1.744zm-.216-7.417c-1.065 1.5-2.319 3.528-2.319 4.344a2.25 2.25 0 0 0 2.516 2.073 2.039 2.039 0 0 0 1.731-1.162 1.751 1.751 0 0 0 -.181-1.8 13.512 13.512 0 0 1 -1.747-3.455z" fill="#323c6b"/><path d="m21.083 16.675a.5.5 0 0 1 -.5-.5v-3.839a.5.5 0 0 1 1 0v3.839a.5.5 0 0 1 -.5.5z" fill="#323c6b"/><path d="m49.64 16.175h6.466v10.031h-6.466z" fill="#89c5cd"/><path d="m22.17 16.18h2.19v10.03h-2.19z" fill="#6eaaad"/><path d="m53.92 16.18h2.19v10.03h-2.19z" fill="#6eaaad"/><path d="m22.17 24.185h2.19v2.22h-2.19z" fill="#6eaaad"/><path d="m53.158 14.385h-.016a2.744 2.744 0 0 1 -3.018-2.573c0-1.505 3-5.438 3-5.438a14.215 14.215 0 0 0 1.966 4.256 2.394 2.394 0 0 1 -1.932 3.755z" fill="#fe7058"/><path d="m53.158 14.885h-.017a3.245 3.245 0 0 1 -3.518-3.073c0-1.627 2.787-5.325 3.1-5.741a.5.5 0 0 1 .882.178 13.794 13.794 0 0 0 1.884 4.084 2.741 2.741 0 0 1 .287 2.806 3.031 3.031 0 0 1 -2.576 1.745zm-.216-7.417c-1.065 1.5-2.318 3.528-2.318 4.344a2.25 2.25 0 0 0 2.515 2.073 2.04 2.04 0 0 0 1.732-1.162 1.752 1.752 0 0 0 -.181-1.794 13.489 13.489 0 0 1 -1.748-3.461z" fill="#323c6b"/><path d="m52.831 16.675a.5.5 0 0 1 -.5-.5v-3.839a.5.5 0 1 1 1 0v3.839a.5.5 0 0 1 -.5.5z" fill="#323c6b"/><path d="m60.237 26.208a6.069 6.069 0 0 1 6.069 6.069v8.24a2.256 2.256 0 0 1 -2.445 2.233 2.336 2.336 0 0 1 -2.061-2.368v-.363a2.746 2.746 0 0 0 -2.936-2.742 2.845 2.845 0 0 0 -2.552 2.884v5.059a3.132 3.132 0 1 1 -6.264 0l.01-1.973a2.471 2.471 0 0 0 -3.028-2.4 2.538 2.538 0 0 0 -1.9 2.508v4.23a3.137 3.137 0 0 1 -6.273 0v-5.717a2.746 2.746 0 0 0 -2.937-2.742 2.846 2.846 0 0 0 -2.551 2.885v2.505a2.255 2.255 0 0 1 -2.407 2.245 2.33 2.33 0 0 1 -2.085-2.361v-2.8a2.454 2.454 0 0 0 -2.638-2.455 2.566 2.566 0 0 0 -2.295 2.6v3.166a3.139 3.139 0 0 1 -3.76 3.069 3.223 3.223 0 0 1 -2.5-3.2v-5.853a2.747 2.747 0 0 0 -2.575-2.734 2.856 2.856 0 0 0 -2.916 2.907v1.1a2.189 2.189 0 0 1 -.661 1.58 2.248 2.248 0 0 1 -3.84-1.58v-7.923a6.069 6.069 0 0 1 6.069-6.069z" fill="#e7aa6c"/><path d="m60.237 26.208a6.069 6.069 0 0 1 6.069 6.069v8.24a2.256 2.256 0 0 1 -2.445 2.233 2.336 2.336 0 0 1 -2.061-2.368v-.363a2.746 2.746 0 0 0 -2.936-2.742 2.845 2.845 0 0 0 -2.552 2.884v5.059a3.132 3.132 0 1 1 -6.264 0l.01-1.973a2.471 2.471 0 0 0 -3.028-2.4 2.538 2.538 0 0 0 -1.9 2.508v4.23a3.137 3.137 0 0 1 -6.273 0v-5.717a2.746 2.746 0 0 0 -2.937-2.742 2.846 2.846 0 0 0 -2.551 2.885v2.505a2.255 2.255 0 0 1 -2.407 2.245 2.33 2.33 0 0 1 -2.085-2.361v-2.8a2.454 2.454 0 0 0 -2.638-2.455 2.566 2.566 0 0 0 -2.295 2.6v3.166a3.139 3.139 0 0 1 -3.76 3.069 3.223 3.223 0 0 1 -2.5-3.2v-5.853a2.747 2.747 0 0 0 -2.575-2.734 2.856 2.856 0 0 0 -2.916 2.907v1.1a2.189 2.189 0 0 1 -.661 1.58 2.248 2.248 0 0 1 -3.84-1.58v-7.923a6.069 6.069 0 0 1 6.069-6.069z" fill="#e7aa6c"/><g fill="#323c6b"><path d="m4.691 34.469a.5.5 0 0 1 -.5-.5v-1.188a.5.5 0 0 1 1 0v1.188a.5.5 0 0 1 -.5.5z"/><path d="m4.84 31.188a.5.5 0 0 1 -.493-.588 9.543 9.543 0 0 1 4.742-6.661.5.5 0 0 1 .49.872 8.546 8.546 0 0 0 -4.248 5.965.5.5 0 0 1 -.491.412z"/><path d="m69 57.538a.5.5 0 0 1 -.5-.5v-7.746a.5.5 0 0 1 1 0v7.747a.5.5 0 0 1 -.5.499z"/><path d="m69 47.625a.5.5 0 0 1 -.5-.5v-.5a.5.5 0 0 1 1 0v.5a.5.5 0 0 1 -.5.5z"/><path d="m66.307 61.625h-58.616a.5.5 0 0 1 -.5-.5v-20.925a.5.5 0 0 1 1 0 1.748 1.748 0 0 0 2.987 1.227 1.7 1.7 0 0 0 .515-1.227v-1.273a3.244 3.244 0 0 1 6.487 0v5.986a2.632 2.632 0 0 0 5.264 0v-3.313a2.966 2.966 0 1 1 5.933 0v2.917a1.752 1.752 0 0 0 1.751 1.75 1.694 1.694 0 0 0 1.223-.51 1.713 1.713 0 0 0 .519-1.24v-2.649a3.252 3.252 0 0 1 3.249-3.249 3.247 3.247 0 0 1 3.239 3.249v5.718a2.635 2.635 0 0 0 4.5 1.859 2.612 2.612 0 0 0 .772-1.859v-4.339a2.966 2.966 0 0 1 5.933 0l-.01 1.975a2.632 2.632 0 1 0 5.264 0v-5.2a3.252 3.252 0 0 1 3.249-3.249 3.248 3.248 0 0 1 3.234 3.246v.5a1.748 1.748 0 0 0 1.751 1.741 1.706 1.706 0 0 0 1.232-.51 1.725 1.725 0 0 0 .519-1.231.5.5 0 0 1 1 0v20.606a.5.5 0 0 1 -.495.5zm-58.115-1h57.615v-17.995a2.7 2.7 0 0 1 -1.751.628 2.749 2.749 0 0 1 -2.756-2.741v-.5a2.244 2.244 0 1 0 -4.488 0v5.2a3.632 3.632 0 1 1 -7.264 0l.01-1.975a1.953 1.953 0 0 0 -.581-1.387 1.966 1.966 0 0 0 -3.352 1.39v4.338a3.636 3.636 0 0 1 -7.272 0v-5.715a2.244 2.244 0 1 0 -4.488 0v2.648a2.756 2.756 0 0 1 -2.741 2.75 2.754 2.754 0 0 1 -2.751-2.75v-2.916a1.966 1.966 0 0 0 -3.933 0v3.314a3.632 3.632 0 0 1 -7.264 0v-5.987a2.244 2.244 0 0 0 -4.487 0v1.273a2.686 2.686 0 0 1 -.812 1.938 2.854 2.854 0 0 1 -3.69.174z"/><path d="m24.357 26.707h-6.465a.5.5 0 0 1 -.5-.5v-10.032a.5.5 0 0 1 .5-.5h6.466a.5.5 0 0 1 .5.5v10.032a.5.5 0 0 1 -.501.5zm-5.966-1h5.466v-9.032h-5.465z"/></g><path d="m38.813 30.337h-9.319a.65.65 0 1 1 0-1.3h9.318a.65.65 0 1 1 0 1.3z" fill="#fff"/><path d="m42.311 30.337h-.7a.65.65 0 1 1 0-1.3h.7a.65.65 0 1 1 0 1.3z" fill="#fff"/><path d="m63.083 27.25v15.508a4.95 4.95 0 0 0 3.223-1.279v-11.006a3.223 3.223 0 0 0 -3.223-3.223z" fill="#d09865"/><path d="m42 51.217a3.64 3.64 0 0 1 -3.641-3.632v-5.717a2.246 2.246 0 0 0 -2.4-2.243 2.334 2.334 0 0 0 -2.086 2.386v2.506a2.754 2.754 0 0 1 -2.942 2.743 2.821 2.821 0 0 1 -2.55-2.861v-2.799a1.953 1.953 0 0 0 -2.1-1.957 2.055 2.055 0 0 0 -1.83 2.1v3.166a3.638 3.638 0 0 1 -4.357 3.56 3.714 3.714 0 0 1 -2.906-3.688v-5.854a2.245 2.245 0 0 0 -2.106-2.234 2.147 2.147 0 0 0 -1.6.6 2.5 2.5 0 0 0 -.785 1.811v1.1a2.686 2.686 0 0 1 -.812 1.938 2.749 2.749 0 0 1 -4.694-1.942v-7.923a6.577 6.577 0 0 1 6.569-6.569h46.477a6.577 6.577 0 0 1 6.569 6.569v8.24a2.756 2.756 0 0 1 -2.986 2.732 2.833 2.833 0 0 1 -2.52-2.867v-.363a2.246 2.246 0 0 0 -2.4-2.243 2.334 2.334 0 0 0 -2.087 2.385v5.059a3.632 3.632 0 1 1 -7.264 0l.01-1.975a1.953 1.953 0 0 0 -.581-1.387 1.974 1.974 0 0 0 -1.837-.522 2.037 2.037 0 0 0 -1.515 2.021v4.229a3.638 3.638 0 0 1 -3.626 3.631zm-5.886-12.6a3.247 3.247 0 0 1 3.245 3.249v5.718a2.635 2.635 0 0 0 4.5 1.859 2.612 2.612 0 0 0 .772-1.859v-4.228a3.042 3.042 0 0 1 2.3-3 2.971 2.971 0 0 1 3.637 2.887l-.01 1.975a2.632 2.632 0 1 0 5.264 0v-5.056a3.336 3.336 0 0 1 3.017-3.383 3.191 3.191 0 0 1 2.521.943 3.228 3.228 0 0 1 .951 2.3v.363a1.829 1.829 0 0 0 1.6 1.87 1.755 1.755 0 0 0 1.9-1.735v-8.24a5.575 5.575 0 0 0 -5.569-5.569h-46.481a5.575 5.575 0 0 0 -5.569 5.569v7.92a1.748 1.748 0 0 0 2.987 1.227 1.7 1.7 0 0 0 .515-1.227v-1.1a3.5 3.5 0 0 1 1.1-2.54 3.1 3.1 0 0 1 2.343-.865 3.245 3.245 0 0 1 3.044 3.232v5.857a2.712 2.712 0 0 0 2.1 2.708 2.643 2.643 0 0 0 2.39-.72 2.613 2.613 0 0 0 .772-1.859v-3.165a2.974 2.974 0 0 1 5.066-2.248 2.987 2.987 0 0 1 .868 2.1v2.8a1.842 1.842 0 0 0 1.623 1.862 1.684 1.684 0 0 0 1.354-.506 1.713 1.713 0 0 0 .519-1.24v-2.506a3.335 3.335 0 0 1 3.016-3.383c.072-.005.148-.008.223-.008z" fill="#323c6b"/><path d="m56.105 26.707h-6.464a.5.5 0 0 1 -.5-.5v-10.032a.5.5 0 0 1 .5-.5h6.465a.5.5 0 0 1 .5.5v10.032a.5.5 0 0 1 -.501.5zm-5.965-1h5.465v-9.032h-5.464z" fill="#323c6b"/><path d="m70.739 68.529h-67.581a.5.5 0 0 1 -.5-.5l.054-6.9a.5.5 0 0 1 .5-.5h67.581a.5.5 0 0 1 .5.5l-.054 6.9a.5.5 0 0 1 -.5.5zm-67.077-1h66.581l.046-5.9h-66.581z" fill="#323c6b"/></svg>